<svg width="26" height="26" viewBox="0 0 26 26" fill="none" xmlns="http://www.w3.org/2000/svg">
<path d="M4.2515 10.964V19.47H21.2635V10.964L12.7575 14.1537L4.2515 10.964ZM4.2515 6.71097V8.83747L12.7575 12.0272L21.2635 8.83747V6.71097H4.2515ZM4.2515 4.58447H21.2635C21.8275 4.58447 22.3684 4.80851 22.7672 5.20731C23.166 5.60611 23.39 6.14699 23.39 6.71097V19.47C23.39 20.034 23.166 20.5748 22.7672 20.9736C22.3684 21.3724 21.8275 21.5965 21.2635 21.5965H4.2515C3.68752 21.5965 3.14663 21.3724 2.74784 20.9736C2.34904 20.5748 2.125 20.034 2.125 19.47V6.71097C2.125 6.14699 2.34904 5.60611 2.74784 5.20731C3.14663 4.80851 3.68752 4.58447 4.2515 4.58447Z" fill="#25313C"/>
</svg>
