<svg width="20" height="20" viewBox="0 0 20 20" fill="none" xmlns="http://www.w3.org/2000/svg">
<path d="M7.5 17C7.36739 17 7.24021 16.9473 7.14645 16.8536C7.05268 16.7598 7 16.6326 7 16.5C7 16.3674 7.05268 16.2402 7.14645 16.1464C7.24021 16.0527 7.36739 16 7.5 16H14C14.5304 16 15.0391 15.7893 15.4142 15.4142C15.7893 15.0391 16 14.5304 16 14V6C16 5.46957 15.7893 4.96086 15.4142 4.58579C15.0391 4.21071 14.5304 4 14 4H7.5C7.36739 4 7.24021 3.94732 7.14645 3.85355C7.05268 3.75979 7 3.63261 7 3.5C7 3.36739 7.05268 3.24021 7.14645 3.14645C7.24021 3.05268 7.36739 3 7.5 3H14C14.7956 3 15.5587 3.31607 16.1213 3.87868C16.6839 4.44129 17 5.20435 17 6V14C17 14.7956 16.6839 15.5587 16.1213 16.1213C15.5587 16.6839 14.7956 17 14 17H7.5ZM7.646 6.146C7.69245 6.09944 7.74762 6.06249 7.80837 6.03729C7.86911 6.01208 7.93423 5.99911 8 5.99911C8.06577 5.99911 8.13089 6.01208 8.19163 6.03729C8.25238 6.06249 8.30755 6.09944 8.354 6.146L11.854 9.646C11.9006 9.69245 11.9375 9.74762 11.9627 9.80837C11.9879 9.86911 12.0009 9.93423 12.0009 10C12.0009 10.0658 11.9879 10.1309 11.9627 10.1916C11.9375 10.2524 11.9006 10.3076 11.854 10.354L8.354 13.854C8.26011 13.9479 8.13278 14.0006 8 14.0006C7.86722 14.0006 7.73989 13.9479 7.646 13.854C7.55211 13.7601 7.49937 13.6328 7.49937 13.5C7.49937 13.3672 7.55211 13.2399 7.646 13.146L10.293 10.5H1.5C1.36739 10.5 1.24021 10.4473 1.14645 10.3536C1.05268 10.2598 1 10.1326 1 10C1 9.86739 1.05268 9.74021 1.14645 9.64645C1.24021 9.55268 1.36739 9.5 1.5 9.5H10.293L7.646 6.854C7.59944 6.80755 7.56249 6.75238 7.53729 6.69163C7.51208 6.63089 7.49911 6.56577 7.49911 6.5C7.49911 6.43423 7.51208 6.36911 7.53729 6.30837C7.56249 6.24762 7.59944 6.19245 7.646 6.146Z" fill="#008000"/>
</svg>
