<svg width="31" height="30" viewBox="0 0 31 30" fill="none" xmlns="http://www.w3.org/2000/svg">
<path d="M20.3678 12.9813L15.6616 8.47125C15.1116 7.94208 14.6528 7.35042 14.2853 6.69625C13.9178 6.04208 13.7341 5.32958 13.7341 4.55875C13.7341 3.63958 14.0557 2.85833 14.6991 2.215C15.3416 1.57167 16.122 1.25 17.0403 1.25C17.7228 1.25 18.3436 1.43458 18.9028 1.80375C19.462 2.17292 19.9499 2.62125 20.3666 3.14875C20.7832 2.62125 21.2716 2.17292 21.8316 1.80375C22.3899 1.43458 23.0107 1.25 23.6941 1.25C24.6132 1.25 25.3941 1.57167 26.0366 2.215C26.6791 2.85833 27.0011 3.63917 27.0028 4.5575C27.0028 5.32917 26.8203 6.04208 26.4553 6.69625C26.0895 7.35042 25.6316 7.94208 25.0816 8.47125L20.3678 12.9813ZM20.3678 11.26L24.1116 7.67625C24.5549 7.24792 24.9395 6.77375 25.2653 6.25375C25.5903 5.73375 25.7528 5.16833 25.7528 4.5575C25.7528 3.9875 25.5528 3.50208 25.1528 3.10125C24.7528 2.70042 24.2666 2.5 23.6941 2.5C23.1941 2.5 22.7457 2.64958 22.3491 2.94875C21.9524 3.24708 21.5961 3.59917 21.2803 4.005L20.3678 5.14875L19.4541 4.005C19.1374 3.59917 18.7811 3.24708 18.3853 2.94875C17.9886 2.64958 17.5403 2.5 17.0403 2.5C16.4695 2.5 15.9841 2.7 15.5841 3.1C15.1832 3.50167 14.9828 3.9875 14.9828 4.5575C14.9828 5.16833 15.1453 5.73375 15.4703 6.25375C15.7953 6.77375 16.1799 7.24792 16.6241 7.67625L20.3678 11.26ZM8.75781 20.8175L18.2141 23.5763L25.7003 21.2638C25.6753 20.8846 25.5616 20.6112 25.3591 20.4437C25.1566 20.2762 24.9274 20.1925 24.6716 20.1925H18.7403C18.212 20.1925 17.7328 20.1717 17.3028 20.13C16.8728 20.0883 16.4332 19.9892 15.9841 19.8325L13.2466 18.935L13.6691 17.7L16.2003 18.615C16.602 18.7675 17.0586 18.8592 17.5703 18.89C18.0811 18.92 18.7811 18.9375 19.6703 18.9425C19.6703 18.5525 19.5986 18.2375 19.4553 17.9975C19.312 17.7575 19.1066 17.59 18.8391 17.495L11.6466 14.855C11.5991 14.8392 11.5549 14.8275 11.5141 14.82C11.4732 14.8125 11.4295 14.8083 11.3828 14.8075H8.75781V20.8175ZM3.75781 23.75V13.5575H11.3528C11.4695 13.5575 11.5895 13.5708 11.7128 13.5975C11.8361 13.6242 11.9507 13.655 12.0566 13.69L19.2803 16.3363C19.7278 16.5063 20.1128 16.8117 20.4353 17.2525C20.7586 17.6933 20.9203 18.2567 20.9203 18.9425H24.6703C25.4236 18.9425 26.0003 19.1779 26.4003 19.6488C26.8011 20.1204 27.0016 20.7183 27.0016 21.4425V22.2112L18.2766 24.9038L8.75656 22.1287V23.75H3.75781ZM5.00781 22.5H7.50781V14.8075H5.00781V22.5Z" fill="#24ABA0"/>
</svg>
