<svg width="31" height="30" viewBox="0 0 31 30" fill="none" xmlns="http://www.w3.org/2000/svg">
<path d="M7.10324 27.3215L3.00181 23.22C2.19802 22.4165 1.74634 21.3266 1.74609 20.19V11.25C1.74609 10.6817 1.97186 10.1367 2.37372 9.73481C2.77559 9.33294 3.32063 9.10718 3.88895 9.10718C4.45727 9.10718 5.00232 9.33294 5.40418 9.73481C5.80604 10.1367 6.03181 10.6817 6.03181 11.25V17.6786M24.1561 27.3215L28.2575 23.22C29.0605 22.4161 29.5114 21.3263 29.5111 20.19V11.25C29.5111 10.6817 29.2853 10.1367 28.8835 9.73481C28.4816 9.33294 27.9366 9.10718 27.3682 9.10718C26.7999 9.10718 26.2549 9.33294 25.853 9.73481C25.4511 10.1367 25.2254 10.6817 25.2254 11.25V17.6786" stroke="black" stroke-linecap="round" stroke-linejoin="round"/>
<path d="M7.99153 21.5957L6.47653 20.0807C6.08619 19.6766 5.8702 19.1353 5.87508 18.5734C5.87996 18.0116 6.10533 17.4741 6.50263 17.0768C6.89993 16.6795 7.43739 16.4542 7.99924 16.4493C8.56109 16.4444 9.10238 16.6604 9.50653 17.0507L12.2772 19.8214C13.0802 20.6253 13.5311 21.7152 13.5308 22.8514V27.3214M23.2658 21.5957L24.7808 20.0807C25.1711 19.6766 25.3871 19.1353 25.3823 18.5734C25.3774 18.0116 25.152 17.4741 24.7547 17.0768C24.3574 16.6795 23.8199 16.4542 23.2581 16.4493C22.6962 16.4444 22.155 16.6604 21.7508 17.0507L18.9801 19.8214C18.1771 20.6253 17.7262 21.7152 17.7265 22.8514V27.3214M19.9594 11.07C19.9594 8.65502 15.6737 2.67859 15.6737 2.67859C15.6737 2.67859 11.388 8.65716 11.388 11.07C11.388 12.2529 11.8401 13.3907 12.6437 14.2286C13.4472 15.0643 14.538 15.5357 15.6737 15.5357C16.8094 15.5357 17.9022 15.0643 18.7058 14.2286C19.5146 13.3763 19.9637 12.245 19.9594 11.07Z" stroke="black" stroke-linecap="round" stroke-linejoin="round"/>
</svg>
