<svg width="31" height="30" viewBox="0 0 31 30" fill="none" xmlns="http://www.w3.org/2000/svg">
<path d="M8.38281 8.4375C7.64113 8.4375 6.91611 8.21757 6.29942 7.80551C5.68274 7.39346 5.20209 6.80779 4.91826 6.12256C4.63444 5.43734 4.56017 4.68334 4.70487 3.95591C4.84956 3.22848 5.20671 2.5603 5.73116 2.03585C6.25561 1.5114 6.9238 1.15425 7.65122 1.00956C8.37865 0.864862 9.13265 0.939125 9.81788 1.22295C10.5031 1.50678 11.0888 1.98743 11.5008 2.60411C11.9129 3.2208 12.1328 3.94582 12.1328 4.6875C12.1328 5.68206 11.7377 6.63589 11.0345 7.33915C10.3312 8.04241 9.37737 8.4375 8.38281 8.4375ZM8.38281 2.8125C8.01197 2.8125 7.64946 2.92247 7.34112 3.1285C7.03278 3.33452 6.79245 3.62736 6.65054 3.96997C6.50862 4.31258 6.47149 4.68958 6.54384 5.0533C6.61619 5.41701 6.79476 5.7511 7.05699 6.01333C7.31921 6.27555 7.6533 6.45413 8.01702 6.52647C8.38073 6.59882 8.75773 6.56169 9.10034 6.41978C9.44296 6.27786 9.73579 6.03754 9.94182 5.7292C10.1478 5.42085 10.2578 5.05834 10.2578 4.6875C10.2578 4.19022 10.0603 3.71331 9.70864 3.36168C9.35701 3.01005 8.88009 2.8125 8.38281 2.8125ZM23.3828 8.4375C22.6411 8.4375 21.9161 8.21757 21.2994 7.80551C20.6827 7.39346 20.2021 6.80779 19.9183 6.12256C19.6344 5.43734 19.5602 4.68334 19.7049 3.95591C19.8496 3.22848 20.2067 2.5603 20.7312 2.03585C21.2556 1.5114 21.9238 1.15425 22.6512 1.00956C23.3787 0.864862 24.1327 0.939125 24.8179 1.22295C25.5031 1.50678 26.0888 1.98743 26.5008 2.60411C26.9129 3.2208 27.1328 3.94582 27.1328 4.6875C27.1328 5.68206 26.7377 6.63589 26.0345 7.33915C25.3312 8.04241 24.3774 8.4375 23.3828 8.4375ZM23.3828 2.8125C23.012 2.8125 22.6495 2.92247 22.3411 3.1285C22.0328 3.33452 21.7925 3.62736 21.6505 3.96997C21.5086 4.31258 21.4715 4.68958 21.5438 5.0533C21.6162 5.41701 21.7948 5.7511 22.057 6.01333C22.3192 6.27555 22.6533 6.45413 23.017 6.52647C23.3807 6.59882 23.7577 6.56169 24.1003 6.41978C24.443 6.27786 24.7358 6.03754 24.9418 5.7292C25.1478 5.42085 25.2578 5.05834 25.2578 4.6875C25.2578 4.19022 25.0603 3.71331 24.7086 3.36168C24.357 3.01005 23.8801 2.8125 23.3828 2.8125ZM25.2578 28.125H21.5078C21.0105 28.125 20.5336 27.9275 20.182 27.5758C19.8304 27.2242 19.6328 26.7473 19.6328 26.25V19.6875H21.5078V26.25H25.2578V17.8125H27.1328V12.1875C27.1328 11.9389 27.034 11.7004 26.8582 11.5246C26.6824 11.3488 26.444 11.25 26.1953 11.25H20.1766L15.8828 18.75L11.5891 11.25H5.57031C5.32167 11.25 5.08322 11.3488 4.9074 11.5246C4.73158 11.7004 4.63281 11.9389 4.63281 12.1875V17.8125H6.50781V26.25H10.2578V19.6875H12.1328V26.25C12.1328 26.7473 11.9353 27.2242 11.5836 27.5758C11.232 27.9275 10.7551 28.125 10.2578 28.125H6.50781C6.01053 28.125 5.53362 27.9275 5.18199 27.5758C4.83036 27.2242 4.63281 26.7473 4.63281 26.25V19.6875C4.13553 19.6875 3.65862 19.49 3.30699 19.1383C2.95536 18.7867 2.75781 18.3098 2.75781 17.8125V12.1875C2.75781 11.4416 3.05413 10.7262 3.58157 10.1988C4.10902 9.67132 4.82439 9.375 5.57031 9.375H12.6766L15.8828 15L19.0891 9.375H26.1953C26.9412 9.375 27.6566 9.67132 28.1841 10.1988C28.7115 10.7262 29.0078 11.4416 29.0078 12.1875V17.8125C29.0078 18.3098 28.8103 18.7867 28.4586 19.1383C28.107 19.49 27.6301 19.6875 27.1328 19.6875V26.25C27.1328 26.7473 26.9353 27.2242 26.5836 27.5758C26.232 27.9275 25.7551 28.125 25.2578 28.125Z" fill="#FF6E3B"/>
</svg>
