<svg width="31" height="30" viewBox="0 0 31 30" fill="none" xmlns="http://www.w3.org/2000/svg">
<path d="M9.50391 22.5V21.25C9.50391 19.5924 10.1624 18.0027 11.3345 16.8306C12.5066 15.6585 14.0963 15 15.7539 15M15.7539 15C17.4115 15 19.0012 15.6585 20.1733 16.8306C21.3454 18.0027 22.0039 19.5924 22.0039 21.25V22.5M15.7539 15C16.7485 15 17.7023 14.6049 18.4056 13.9017C19.1088 13.1984 19.5039 12.2446 19.5039 11.25C19.5039 10.2554 19.1088 9.30161 18.4056 8.59835C17.7023 7.89509 16.7485 7.5 15.7539 7.5C14.7593 7.5 13.8055 7.89509 13.1023 8.59835C12.399 9.30161 12.0039 10.2554 12.0039 11.25C12.0039 12.2446 12.399 13.1984 13.1023 13.9017C13.8055 14.6049 14.7593 15 15.7539 15ZM2.00391 22.5V21.25C2.00391 20.2554 2.39899 19.3016 3.10226 18.5983C3.80552 17.8951 4.75934 17.5 5.75391 17.5M5.75391 17.5C6.41695 17.5 7.05283 17.2366 7.52167 16.7678C7.99051 16.2989 8.25391 15.663 8.25391 15C8.25391 14.337 7.99051 13.7011 7.52167 13.2322C7.05283 12.7634 6.41695 12.5 5.75391 12.5C5.09087 12.5 4.45498 12.7634 3.98614 13.2322C3.5173 13.7011 3.25391 14.337 3.25391 15C3.25391 15.663 3.5173 16.2989 3.98614 16.7678C4.45498 17.2366 5.09087 17.5 5.75391 17.5ZM29.5039 22.5V21.25C29.5039 20.2554 29.1088 19.3016 28.4056 18.5983C27.7023 17.8951 26.7485 17.5 25.7539 17.5M25.7539 17.5C26.4169 17.5 27.0528 17.2366 27.5217 16.7678C27.9905 16.2989 28.2539 15.663 28.2539 15C28.2539 14.337 27.9905 13.7011 27.5217 13.2322C27.0528 12.7634 26.4169 12.5 25.7539 12.5C25.0909 12.5 24.455 12.7634 23.9861 13.2322C23.5173 13.7011 23.2539 14.337 23.2539 15C23.2539 15.663 23.5173 16.2989 23.9861 16.7678C24.455 17.2366 25.0909 17.5 25.7539 17.5Z" stroke="#F7A234" stroke-linecap="round" stroke-linejoin="round"/>
</svg>
