<svg width="26" height="28" viewBox="0 0 26 28" fill="none" xmlns="http://www.w3.org/2000/svg">
<path d="M13.1451 14.0905C16.6684 14.0905 19.5246 11.2343 19.5246 7.71104C19.5246 4.18774 16.6684 1.33154 13.1451 1.33154C9.62182 1.33154 6.76562 4.18774 6.76562 7.71104C6.76562 11.2343 9.62182 14.0905 13.1451 14.0905Z" stroke="#25313C" stroke-width="2.1265"/>
<path d="M19.5238 16.6424H19.9729C20.9057 16.6427 21.8062 16.9835 22.5054 17.601C23.2046 18.2184 23.6543 19.0699 23.77 19.9955L24.2688 23.9814C24.3137 24.3404 24.2817 24.705 24.1749 25.0507C24.0681 25.3965 23.8891 25.7156 23.6495 25.9868C23.41 26.2581 23.1156 26.4753 22.7857 26.624C22.4558 26.7728 22.098 26.8497 21.7362 26.8496H4.55236C4.19049 26.8497 3.83274 26.7728 3.50286 26.624C3.17298 26.4753 2.8785 26.2581 2.63898 25.9868C2.39947 25.7156 2.22038 25.3965 2.11361 25.0507C2.00684 24.705 1.97482 24.3404 2.01969 23.9814L2.5173 19.9955C2.63301 19.0694 3.08305 18.2176 3.78277 17.6001C4.4825 16.9826 5.3837 16.642 6.31692 16.6424H6.76477" stroke="#25313C" stroke-width="2.1265" stroke-linecap="round" stroke-linejoin="round"/>
</svg>
