<svg width="26" height="26" viewBox="0 0 26 26" fill="none" xmlns="http://www.w3.org/2000/svg">
<g clip-path="url(#clip0_150_590)">
<path d="M21.266 14.7917V13.0905C21.266 12.6393 21.0867 12.2066 20.7677 11.8876C20.4487 11.5686 20.0159 11.3893 19.5648 11.3893H2.55276C2.10158 11.3893 1.66887 11.5686 1.34983 11.8876C1.0308 12.2066 0.851563 12.6393 0.851562 13.0905V23.2977C0.851563 23.7489 1.0308 24.1816 1.34983 24.5007C1.66887 24.8197 2.10158 24.9989 2.55276 24.9989H19.5648C20.0159 24.9989 20.4487 24.8197 20.7677 24.5007C21.0867 24.1816 21.266 23.7489 21.266 23.2977V21.5965M21.266 14.7917H14.4612C13.5588 14.7917 12.6934 15.1502 12.0553 15.7883C11.4172 16.4263 11.0588 17.2918 11.0588 18.1941C11.0588 19.0965 11.4172 19.9619 12.0553 20.6C12.6934 21.2381 13.5588 21.5965 14.4612 21.5965H21.266M21.266 14.7917C22.1683 14.7917 23.0337 15.1502 23.6718 15.7883C24.3099 16.4263 24.6684 17.2918 24.6684 18.1941C24.6684 19.0965 24.3099 19.9619 23.6718 20.6C23.0337 21.2381 22.1683 21.5965 21.266 21.5965M5.95516 11.3893V6.28573C5.95516 4.93217 6.49286 3.63405 7.44997 2.67694C8.40708 1.71983 9.7052 1.18213 11.0588 1.18213C12.4123 1.18213 13.7104 1.71983 14.6676 2.67694C15.6247 3.63405 16.1624 4.93217 16.1624 6.28573V11.3893M20.4154 18.1941H22.1166M17.013 18.1941H18.7142M13.6106 18.1941H15.3118" stroke="#25313C" stroke-width="1.59487"/>
</g>
<defs>
<clipPath id="clip0_150_590">
<rect width="25.518" height="25.518" fill="white" transform="translate(0 0.331543)"/>
</clipPath>
</defs>
</svg>
