<svg width="24" height="24" viewBox="0 0 24 24" fill="none" xmlns="http://www.w3.org/2000/svg">
<path d="M19.9116 5.32189C20.1002 5.32347 20.2848 5.37661 20.4454 5.47557C20.606 5.57452 20.7364 5.71552 20.8226 5.8833C20.9089 6.05108 20.9475 6.23925 20.9345 6.42743C20.9214 6.6156 20.8571 6.79663 20.7486 6.95089L19.7066 8.43189C19.6426 13.5179 17.9416 16.9709 14.6506 18.6959C13.0825 19.4759 11.3496 19.8666 9.59858 19.8349C7.43343 19.8848 5.29385 19.3589 3.39858 18.3109C3.27108 18.2252 3.17254 18.1029 3.11595 17.9601C3.05936 17.8173 3.04737 17.6607 3.08158 17.5109C3.11386 17.359 3.19129 17.2205 3.30372 17.1134C3.41615 17.0063 3.55832 16.9357 3.71158 16.9109C4.98482 16.7331 6.23863 16.4364 7.45658 16.0249C1.99858 13.4999 3.18858 7.82389 3.70858 6.08089C3.75927 5.90785 3.85459 5.75118 3.98497 5.62662C4.11534 5.50205 4.27619 5.41397 4.45137 5.37122C4.62654 5.32846 4.80988 5.33254 4.98298 5.38303C5.15609 5.43352 5.31286 5.52866 5.43758 5.65889C7.03516 7.30519 9.15348 8.34756 11.4326 8.60889C11.3923 7.99645 11.487 7.38262 11.7101 6.81083C11.9332 6.23903 12.2792 5.72323 12.7236 5.29989C13.4937 4.56906 14.5159 4.16329 15.5776 4.16702C16.6393 4.17074 17.6586 4.58367 18.4236 5.31989L19.9116 5.32189ZM4.51958 17.7939C6.38158 18.6659 10.7456 19.6129 14.1866 17.8099C17.1416 16.2609 18.6626 13.0779 18.7076 8.34889C18.7095 8.19251 18.7591 8.04043 18.8496 7.91289L19.9306 6.37489L19.8896 6.32189C19.3716 6.31489 18.8606 6.30789 18.3396 6.32189C18.1365 6.31678 17.9422 6.23827 17.7926 6.10089C17.2169 5.51738 16.4353 5.18296 15.6158 5.1695C14.7962 5.15604 14.0041 5.4646 13.4096 6.02889C13.0274 6.39184 12.7418 6.84435 12.5786 7.34546C12.4153 7.84658 12.3796 8.38049 12.4746 8.89889C12.4917 8.99547 12.4867 9.09466 12.4601 9.18905C12.4334 9.28343 12.3857 9.37056 12.3206 9.44389C12.258 9.51778 12.1782 9.57513 12.0882 9.61088C11.9982 9.64664 11.9008 9.65969 11.8046 9.64889C9.1177 9.46177 6.59476 8.28827 4.72058 6.35389C4.05058 8.43189 3.20058 13.4479 8.58958 15.4189C8.70312 15.4594 8.80267 15.5316 8.87641 15.6269C8.95014 15.7223 8.99497 15.8368 9.00558 15.9569C9.01716 16.075 8.99515 16.194 8.94208 16.3001C8.889 16.4063 8.80702 16.4953 8.70558 16.5569C7.38856 17.1987 5.97389 17.6167 4.51958 17.7939Z" fill="#2483FE"/>
</svg>
